<svg version="1" xmlns="http://www.w3.org/2000/svg" width="2666.667" height="2666.667" viewBox="0 0 2000.000000 2000.000000"><path d="M968.7 3.6c-.1.1-7.2.5-15.7.8-8.5.4-17.7.9-20.5 1.1-2.7.2-8.4.7-12.5 1.1-4.1.3-9.5.7-12 .9-2.5.2-7 .6-10 1-3 .3-7.1.7-9 .9-8.8.9-16.5 1.9-28.5 3.6-20.8 3-19.7 2.9-35.4 5.5-1.9.3-3.7.7-4 .9-.3.2-2.6.7-5.1 1-2.5.3-5.4.8-6.5 1-1.1.3-6.7 1.4-12.5 2.6-13.7 2.8-11.9 2.4-24.5 5.4-13.4 3.1-23.4 5.7-34 8.6-4.4 1.2-9.3 2.5-11 3-21 5.6-77.1 24.5-88.2 29.7-1.7.8-3.7 1.6-4.5 1.7-.7.2-2.4.8-3.8 1.3-1.4.6-4.9 2-7.7 3.2-2.9 1.1-10.6 4.4-17 7.2-41.4 18-82.9 39.4-120.8 62.1-15.2 9.2-53 33.9-64 41.9-14.4 10.6-43.1 32.4-44.5 33.8-.8.9-4 3.5-7 5.8s-6.4 5-7.5 6c-1.1 1-5.1 4.5-9 7.7-7.4 6.2-17.6 15.2-28.4 25.1-10.2 9.2-52.8 52-61.3 61.5-4.2 4.7-9.1 10.1-10.9 12-1.7 1.9-9.7 11.4-17.8 21C164 445.9 107.9 541.3 68.4 644.6c-7.2 18.8-17.5 48.6-21.4 61.9-1 3.3-3 10-4.4 14.9-2.7 9-11.2 41-12 44.9-.3 1.2-1.8 8.3-3.5 15.6-1.7 7.4-3.4 14.8-3.6 16.3-.3 1.5-1.4 7.2-2.4 12.5-1.1 5.4-2.2 11.6-2.5 13.8-.4 2.2-.8 4.7-1.1 5.5-.4 1.4-.6 3-2.1 12.7-.3 2.1-.9 6.3-1.4 9.3-.5 3-1.2 7.7-1.5 10.5-.3 2.7-.8 6.1-1.1 7.5-.2 1.4-.7 4.7-.9 7.5-.3 2.7-.7 6.6-1 8.5-.2 1.9-.7 6.2-1 9.5-.4 3.3-.8 7.6-1 9.5-.4 3.1-.7 6.9-2 24-2.7 35.6-2.7 122.1 0 143.5.2 1.6.7 6.6 1 11 .9 11.4 1.5 18.4 2.1 23 .2 2.2.7 6 1 8.5.9 8.4 3.2 26.1 3.9 30 .6 3.4 1.2 7.6 1.9 13.1.4 2.5 1.5 9.5 2.7 15.5 1.1 6 2.5 13.6 3 16.8.6 3.3 1.2 6.2 1.4 6.5.1.3.6 2.3.9 4.3.8 4.9 4 19.4 7.7 34.8 1.7 6.9 3.2 13.2 3.4 14 3.4 15.6 25 84.3 31 98.5.7 1.6 4.5 11.3 8.5 21.5s8.6 21.3 10.1 24.7c1.6 3.4 4 9.1 5.5 12.5 4 9.7 26.4 54.7 34.9 70.3 23.8 43.4 60 98.8 85.2 130.5.7.8 4.9 6.2 9.4 12s8.5 10.7 8.8 11c.3.3 4 4.5 8 9.5 28.3 34.2 61.8 68.6 103.7 106.6 4.4 3.9 27.6 23.5 34.3 28.9 2.4 1.9 5.8 4.6 7.5 6 20.2 16.6 63.9 47.4 92.6 65.2 15.5 9.6 32.7 19.8 33.4 19.8.3 0 2.7 1.3 5.3 2.9 9 5.4 21.8 12.2 45.8 24 29.3 14.5 31.2 15.4 66.3 30.2 1.2.5 3.2 1.3 4.5 1.9 27.8 11.9 98.3 34.7 129 41.6.9.2 2.5.6 3.5.8 17 4.2 42 9.6 55.7 12.1 8.8 1.6 32.6 5.5 36.5 6 4.7.6 17.7 2.4 22 3 3 .4 10.4 1.3 18 2 3 .3 7.1.8 9 1 3.1.4 9.5.9 24.5 2 37.3 2.8 113.6 2.8 146-.1 2.2-.2 7.6-.6 12-.9 4.4-.3 9.6-.7 11.5-1 1.9-.2 6.2-.7 9.5-1 8.1-.8 13.5-1.5 16.5-2 1.4-.2 5-.7 8.1-1 3.1-.3 6.5-.7 7.5-.9 1.1-.2 4.2-.7 6.9-1 2.8-.4 6.1-.8 7.5-1.1 4.6-.8 9.5-1.7 12.4-2.1 5.1-.6 30.6-5.5 44.6-8.4 64.4-13.5 142.8-39.5 202.3-66.9 3.7-1.7 7-3.2 7.5-3.2.4-.1 11.7-5.7 25.2-12.5 26.2-13.1 37.6-19.3 61.8-33.8 8.4-5 16.1-9.6 17-10.1 3.9-2.2 22.9-14.4 24.7-15.7.6-.5 4.8-3.3 9.5-6.4 20.2-13.4 52.3-37.4 74.9-55.9 6.6-5.5 28.8-24.5 31.5-27 .6-.6 6.9-6.4 14.1-13 17.3-16 50.8-49.9 63-63.9 24.4-27.7 39.5-46.2 57.7-70.6 62.2-83.5 109.3-172.2 143.5-271 6.4-18.5 7.7-22.5 15.2-48.1 5.6-18.9 16.1-61.3 18.6-74.9.3-1.4.7-3.6 1-5 1.1-5.5 3.9-20.7 5.5-30.5.5-3.3 1.2-7.1 1.4-8.5.3-1.4.7-4.3 1.1-6.5.3-2.2 1-6.7 1.5-10s1.2-8.3 1.5-11c.3-2.8.7-6.4.9-8 .2-1.7.7-5.4 1-8.3 2.1-18.1 2.2-19.4 3.1-33 .4-5.3.8-10.4 1-11.2 1.1-5.7 2-39.4 1.9-72-.1-33.8-.5-48.5-1.9-66.7l-1.1-14.3c-.3-5.2-.8-10.2-.9-11-.2-.8-.6-4.9-1-9-.5-6.5-3.6-31.6-5.1-42-1.3-9-3.7-23.7-5.9-35.5-1.3-7.2-2.7-14.6-3-16.5-.3-1.9-1-5.1-1.5-7-.5-1.9-1.9-8-3.1-13.5-20.4-96.3-63.7-205.2-116.2-292.2-10.6-17.6-23.9-38.6-24.7-39.3-.4-.3-1.2-1.5-1.9-2.7-2.9-5.5-44.2-62.7-47.1-65.3-.3-.3-3.5-4.1-7-8.5-5.4-6.8-27.2-32.5-30.5-36.1-.5-.7-4.8-5.4-9.5-10.5-8.8-9.7-50.3-51.5-60-60.4-11.3-10.4-32.9-29.1-43.5-37.8-6-4.9-12-9.7-13.2-10.7-16-13.5-72.4-53.2-93-65.6-1.8-1-10.1-6-18.5-11-27.2-16.3-65.4-36.4-89.8-47.4-4.1-1.8-10.2-4.6-13.5-6.1-3.3-1.4-10.9-4.8-17-7.3-6-2.6-11.9-5.1-13-5.6-29.5-12.9-98.2-35-138.5-44.5-13.9-3.3-33.3-7.7-36-8.1-1.9-.3-5.5-1-8-1.6-2.5-.5-5.8-1.2-7.5-1.4-1.6-.3-6.4-1.1-10.5-1.9-4.1-.8-9.1-1.7-11-1.9-9.5-1.5-24.9-3.7-28.5-4.2-2.2-.3-5.1-.7-6.5-.9-1.4-.2-4.7-.7-7.5-1-2.7-.3-6.6-.7-8.5-1-1.9-.2-6.4-.7-10-1-3.6-.3-8.1-.7-10-.9-7.5-1-20.8-1.9-46-3.2-12-.6-76.7-1.3-77.3-.8zM911 531.5c14.6.4 29.4.8 33 1 21.5 1 34 1.7 38 2 2.5.2 9 .6 14.5 1 5.5.3 12.3.8 15 1 2.8.2 8.4.7 12.5 1 7.8.6 13.8 1.1 23 2 14.7 1.3 17.8 1.6 21 2 1.9.2 6 .7 9 1 3 .3 7.1.8 9 1 1.9.3 6 .7 9 1 8.7.9 14.7 1.7 24.5 3 2.2.2 6 .7 8.5 1 2.5.3 5.6.7 7 1 1.4.3 4.5.7 7 1 2.5.3 5.6.7 7 1 1.4.2 4.1.6 6 .9 3.8.5 22.5 3.3 28 4.2 3.4.5 9.3 1.5 28.5 4.9 5 .9 10.3 1.8 12 2.1 6.5 1.1 47.6 9.4 51.2 10.3 2.1.5 5.2 1.2 6.8 1.4 1.7.3 6.2 1.2 10 2.2 3.9.9 8.1 1.9 9.5 2.1 1.4.3 13.3 3.2 26.5 6.5s24.7 6.1 25.5 6.3c4.4 1.1 10.9 2.8 13.5 3.7 1.7.5 11.1 3.2 21 6 32.4 9.1 96.1 29.8 110 35.8 1.1.5 11.5 4.6 23 9.1 34.1 13.4 77.5 32.8 103.5 46.3 20.3 10.5 31.8 16.6 38 20.2 3.6 2.1 8.5 4.9 11 6.3 2.5 1.4 6.2 3.6 8.2 4.9 2.1 1.2 4 2.3 4.4 2.3 1.4 0 13.4 9.8 18.7 15.3 13.5 13.9 22.2 31.5 25.1 50.7 1.8 12.1 1.3 22-1.8 36.9-2.6 12.3-13.4 31.7-23.2 41.7-8.8 9-21 17.1-32.9 21.9-21.7 8.7-49.9 8.3-70.6-.9-3.1-1.3-13.9-7.2-24-12.9-32.2-18.2-63.8-33.9-96.7-47.8-9.2-3.8-17.6-7.4-18.7-7.9-13.1-6-65.9-24.9-92-33-24-7.5-69.8-20.4-83.7-23.6-2.1-.5-2.2-.5-16.3-3.9-12.6-3-33.1-7.6-36-8-1.1-.2-5.4-1.1-9.5-2-6.3-1.4-20.8-4.2-31-6.1-16.3-3-25.2-4.5-34-5.9-5.8-.9-11.6-1.9-13-2.1-1.4-.2-5.7-.9-9.7-1.5-3.9-.5-8.2-1.2-9.4-1.4-2-.4-6-.9-22.4-3.1-2.2-.3-5.1-.7-6.5-.9-1.4-.2-4.5-.6-7-.9-6-.7-12.7-1.5-17-2.1-1.9-.3-6.2-.7-9.6-1-3.3-.3-6.9-.7-8-.9-1-.2-5.7-.7-10.3-1.1-4.7-.4-9.2-.8-10-1-.9-.1-5.9-.6-11.1-1-5.2-.4-11.1-.8-13-1-1.9-.2-7.5-.6-12.5-1-4.9-.3-11-.8-13.5-1-2.5-.2-9.7-.7-16-1.1-6.3-.3-13.7-.8-16.5-.9-41.6-2.7-162.4-2.7-199 0-3.3.2-10.5.7-16 1-5.5.3-12.2.7-15 1-2.7.2-8.6.7-13 1-15.4 1.2-18.4 1.4-34.5 3-10.2 1-15.5 1.6-19 2-1.9.2-5.7.7-8.5 1-9.2 1-21.2 2.6-23.7 3-1.1.2-4.6.7-7.9 1-3.3.4-6.8.8-7.7 1-2.9.5-9.6 1.5-12.7 2-4 .5-10.4 1.5-13.5 2-1.4.3-3.8.7-5.5 1-14.3 2.3-32.7 5.6-44.5 8-1.4.3-5.6 1.2-9.5 1.9-21.2 4.2-58.8 13.6-86.5 21.6-7.4 2.2-16.5 4.3-20.3 4.8-7.5 1-21 .9-27.4-.2-2.4-.4-4.4-.7-4.5-.7-.2.1-4.3-1.2-9.2-2.9-33.4-11.2-54.6-35.5-63.3-72.5-1.1-4.9-1-24.6.2-31.5 6-33.5 29.3-61.4 60.1-72 11-3.8 55.4-16.2 66.1-18.5 1.5-.3 11.5-2.7 17.3-4 3.8-1 33.8-7.5 36.3-7.9 1.5-.3 3.5-.7 4.5-1 .9-.3 3.4-.7 5.4-1 2.1-.3 5.8-1 8.3-1.6 2.5-.6 6.2-1.3 8.1-1.6 2-.3 4.6-.8 5.8-1 4.3-.9 23.9-4.2 28.6-4.9 1.9-.2 4.6-.6 6-.9 1.4-.3 4.8-.8 7.5-1.1 8.2-1.2 8.8-1.3 13-1.9 11-1.7 10.8-1.7 29-4 6.6-.8 14.7-1.8 18-2.2 3.3-.3 6.7-.8 7.5-.9.8-.2 5.1-.6 9.5-1s9.1-.8 10.5-1c1.4-.3 5.7-.7 9.5-1 3.9-.4 8.8-.8 11-1.1 2.2-.2 7.4-.6 11.5-.9 4.1-.3 9.5-.8 12-1 2.5-.2 9-.7 14.5-1 5.5-.4 12-.9 14.5-1 2.5-.2 10.4-.6 17.5-1 7.2-.3 16.4-.8 20.5-1 4.1-.3 20.6-.7 36.5-1.1 16-.4 29.1-.7 29.2-.8.5-.4 56.5.2 80.3.9zm-36.5 343c14.9.4 28.8.8 31 1 2.2.1 10.1.6 17.5.9 7.4.4 15.1.9 17 1.1 3.2.3 7.2.7 25.5 2 3.3.3 7.8.7 10 .9 2.2.2 6.9.7 10.5 1.1 3.6.3 8.1.8 10 1 1.9.2 6.2.7 9.5 1 3.3.4 7.4.8 9 1 7.6 1 12.3 1.6 16.5 2.1 2.5.3 5.6.7 7 .9 1.4.2 4.3.7 6.5 1 10.3 1.3 13.5 1.8 22 3.1 1.7.3 4.4.7 6 .9 5.5.8 32.9 5.5 45.5 8 6.9 1.3 14.1 2.7 16 3 1.9.3 4.2.8 5 1 .8.2 2.9.7 4.5 1 3.4.6 5.2.9 11.5 2.4 2.5.5 5.6 1.2 7 1.5 1.4.2 4.8 1 7.5 1.6 2.8.6 5.9 1.4 7 1.6 2.3.4 45.5 11.3 47 11.8.6.1 2.4.6 4 1 20.2 5 74 21.7 102 31.7 11.6 4.1 36 13.2 39 14.4 1.7.8 8.4 3.5 15 6.1 11.3 4.4 34.2 14.3 53.5 23 13.3 6.1 54.2 26.6 68 34.2 21.7 11.9 24.4 13.4 29.8 16.8 2.9 1.9 5.4 3.4 5.6 3.4.2 0 4.6 2.6 9.7 5.7 15.4 9.5 25.2 19.7 32.2 33.8 6 12 8.2 21.8 8 36.5-.4 32.3-21.1 60.5-52.7 71.6-16.7 5.9-38.8 5.2-54.7-1.9-3.1-1.4-11.7-6.1-19-10.4-47.6-28.3-108.4-57.7-154.4-74.6-3.8-1.4-11.3-4.2-16.5-6.2-37.6-14.3-117.4-37.9-152-45-3.6-.7-11.7-2.4-18-3.8-6.3-1.4-13.1-2.9-15-3.2-1.9-.3-4.2-.8-5-1-.8-.2-2.8-.6-4.4-.9-1.6-.3-5.2-1-8-1.5-2.8-.6-6.2-1.2-7.6-1.5-1.4-.2-6.5-1.1-11.5-2-4.9-.8-10.6-1.8-12.5-2.1-7-1.1-15.6-2.4-19.5-3-2.2-.3-6.5-1-9.5-1.5s-9.8-1.4-15-2c-5.2-.6-10.6-1.3-12-1.6-1.4-.2-5-.6-8-.9-3-.3-6.8-.8-8.5-1-4.9-.6-13.7-1.6-18.5-2-7.4-.6-18.2-1.5-23.5-2-2.7-.3-8.4-.7-12.5-1-4.1-.3-10.2-.7-13.5-.9-5.5-.4-14.9-.9-44-2.1-13.3-.6-73.7-.6-89 0-15.2.6-34.1 1.5-39.5 2-4.1.3-19.1 1.3-29.5 2-2.2.1-6.9.6-10.5.9-3.6.4-8.3.9-10.5 1.1-14 1.4-21.3 2.2-26.5 3-1.4.2-4.9.7-7.9 1-3 .4-6.2.8-7.1 1-.9.2-4.1.6-7.1 1-3 .3-6.5.8-7.9 1-3.2.6-7.3 1.2-13 2-2.5.4-6.3 1-8.5 1.5s-5.9 1.1-8.3 1.5c-3.8.5-13.4 2.2-22.7 4-18 3.4-58 12.5-70 15.9-2.7.8-11.1 3.1-18.5 5.2-7.4 2-16.1 4.5-19.3 5.5-10.9 3.4-26.5 4.2-37.4 1.8-3.2-.7-6.1-1.3-6.5-1.3-.3-.1-1-.4-1.4-.9-.4-.4-1.4-.7-2.1-.7-4.4 0-20.9-9.8-28.5-16.8-14.5-13.4-23.9-34.8-24-54.7 0-14.8 2-24.1 7.7-35.6 4.2-8.6 5-9.8 9.6-15.2 12.5-14.5 23.5-21.2 45.4-27.7 25-7.3 65-17.6 85.5-21.9 5.2-1.1 13.6-2.9 18.6-4 5-1.1 11.1-2.3 13.5-2.6 2.4-.4 4.6-.8 4.9-1 .3-.2 2.6-.6 5-1 2.5-.3 5.2-.8 6-1 .8-.2 2.9-.7 4.6-1 20.1-3.4 28.4-4.7 30.9-5 1.7-.2 5.9-.9 9.5-1.4 7.8-1.2 20-2.9 25.5-3.5 2.2-.3 5.8-.8 8-1 5.2-.7 10.5-1.3 18-2.1 3.3-.3 7.6-.8 9.5-1 1.9-.3 6.7-.7 10.5-1.1 3.9-.4 8.4-.8 10-1 1.7-.1 7.1-.5 12-.9 5-.3 11-.8 13.5-1 2.5-.2 9.7-.7 16-1.1 6.3-.3 13.5-.8 16-.9 2.5-.2 17.1-.6 32.5-1 15.4-.4 28.1-.8 28.2-.9.3-.2 28.3.2 54.8.9zm37 325.9c3.9.2 12 .7 18 1 6.1.4 13 .9 15.5 1.1 2.5.2 8.3.6 13 1 12.3 1 30.7 2.8 40 4 1.9.3 5.5.7 8 1 5.8.7 19.8 2.5 23 3 1.4.2 3.9.6 5.5.9 1.7.3 5.5.8 8.5 1.1 3 .4 5.8.8 6.1 1 .3.2 2.5.6 5 .9 2.4.3 5.8.8 7.4 1.1 7.8 1.4 25.5 4.7 29.5 5.5 2.5.6 5.6 1.2 7 1.4 9.6 1.9 41.1 9.1 51 11.8 4.1 1.1 11.8 3.1 17 4.4 49.3 12.9 111.4 35.3 162 58.4 31.9 14.5 76.8 38.2 103 54.4 23.6 14.5 33.6 29.9 34.7 53.6.9 18.9-4.5 32.8-18.2 46.5-8.5 8.5-15.6 12.8-27 16.1-8.9 2.7-24.9 2.5-34-.3-6.5-2.1-11.2-4.6-39-20.8-11.6-6.7-25.4-14-45-23.7-7.7-3.8-14.8-7.3-15.8-7.9-1-.5-7.9-3.7-15.5-7-52.9-23.5-102.6-40.6-157.7-54.2-15.9-4-43.3-10-51.2-11.3-1.5-.2-3.9-.7-5.3-1-1.4-.3-3.8-.8-5.5-1-1.6-.3-4.1-.7-5.5-1-3-.7-3.7-.8-16.5-2.8-5.5-.9-11.1-1.8-12.5-2-2.9-.5-9.8-1.4-15.5-2.1-2.2-.3-5.8-.8-8-1-8-1.1-18.8-2.3-26-3-2.7-.3-7.1-.7-9.6-1-2.6-.3-7.3-.8-10.5-1-3.3-.2-10.2-.7-15.4-1-16.5-1.2-19.1-1.3-37.5-2.1-31.9-1.3-97.1-.8-124 1.1-3.3.2-10 .7-15 1-10.4.6-19.1 1.3-25.5 2-2.5.2-7.9.7-12 1-4.1.3-9.1.8-11 1-1.9.3-5.7.7-8.5 1-4.7.4-17.4 1.9-27.5 3-2.5.3-6.1.8-8 1.1-1.9.2-5.3.7-7.5.9-2.2.3-5.1.7-6.5 1-1.4.3-4.5.7-7 1-2.5.3-7.4 1-11 1.6-3.6.6-8 1.2-9.8 1.5-1.7.2-9.6 1.5-17.5 2.8-7.8 1.4-15.5 2.7-17.2 2.9-3.2.6-33.3 6.2-37.5 7.1-1.4.3-3.7.7-5.3 1-1.5.3-3.5.7-4.5 1-.9.3-3.4.7-5.6 1.1-2.1.3-4.1.7-4.5.9-.3.2-2.4.7-4.6 1-2.2.4-5.8 1.1-8 1.7-2.2.6-5.1 1.3-6.5 1.5-1.4.2-5.6 1.2-9.5 2.1-7.3 1.9-24.9 2.4-31.7 1.1-9-1.8-20.1-7.6-28.5-14.8-8.4-7.3-16-20.3-18.8-32.2-1.3-5.9-1.5-21.6-.2-26.3.3-1.1.8-3.4 1.2-5 .4-1.7 2.3-6.3 4.3-10.3 6.5-13.4 20.9-26.1 34.6-30.7 4-1.3 24.9-6.3 34.1-8.1 1.1-.2 11.9-2.4 24-4.8 12.1-2.5 23.4-4.7 25-5 6.5-1.1 10.4-1.8 20-3.6 5.5-1.1 12-2.2 14.5-2.5 2.5-.3 5.2-.8 6-1 1.3-.4 20.4-3.4 31.5-5 2.3-.3 5-.7 6-.9 2.8-.5 10.3-1.5 15.5-2.1 4.4-.5 10-1.3 15-2 1.4-.2 5-.6 8-1 3-.3 7.1-.8 9-1 1.9-.3 6-.7 9-1 3-.3 6.6-.7 8-1 1.4-.2 6.3-.7 10.9-1 4.7-.4 9.2-.8 10.1-1 .9-.2 5.8-.6 11-1s11.1-.9 13-1c1.9-.2 8.5-.7 14.5-1 6.1-.4 12.8-.9 15-1 2.2-.2 12.1-.6 22-1s18.2-.9 18.4-1.1c.5-.5 100.6.4 109.6 1z"/></svg>